<svg xmlns="http://www.w3.org/2000/svg" viewBox="0 0 128 128">
    <!-- Bitcoin-themed favicon with house icon -->
    <defs>
        <linearGradient id="bitcoinGradient" x1="0%" y1="0%" x2="100%" y2="100%">
            <stop offset="0%" style="stop-color:#f19332;stop-opacity:1" />
            <stop offset="100%" style="stop-color:#ed7611;stop-opacity:1" />
        </linearGradient>
    </defs>

    <!-- Background circle -->
    <circle cx="64" cy="64" r="60" fill="url(#bitcoinGradient)" />

    <!-- Bitcoin symbol -->
    <path d="M46 35h8v8h-8zm0 50h8v8h-8z" fill="white" />
    <path d="M54 27v74M62 27v74" stroke="white" stroke-width="4" stroke-linecap="round" />
    <path d="M38 45h32c8 0 14 6 14 14s-6 14-14 14H54h16c8 0 14 6 14 14s-6 14-14 14H38"
          stroke="white" stroke-width="6" stroke-linecap="round" stroke-linejoin="round" fill="none" />

    <!-- Small house icon -->
    <g transform="translate(85, 85) scale(0.8)">
        <path d="M12 3l8 6v12h-6v-8h-4v8h-6v-12z" fill="white" opacity="0.9" />
        <path d="M12 1l11 8h-3v12h-16v-12h-3z" stroke="white" stroke-width="1" fill="none" opacity="0.7" />
    </g>

    <style>
        @media (prefers-color-scheme: dark) {
            circle { filter: brightness(0.9); }
        }
    </style>
</svg>
